<svg width="55" height="42" viewBox="0 0 55 42" fill="none" xmlns="http://www.w3.org/2000/svg">
<path d="M17.875 24C21.8434 24 28.4415 25.4229 32.415 28.2549C35.2471 27.4194 38.3537 27 40.5625 27C43.1171 27 46.545 27.5616 49.375 28.6963C50.7874 29.2628 52.1381 30.0063 53.1602 30.9697C54.1895 31.9399 55 33.2517 55 34.9004V42H0V33.5996C0.000488633 27.2159 11.9093 24 17.875 24ZM17.875 27C15.2303 27 11.1041 27.7354 7.70898 29.1963C6.01291 29.9262 4.67392 30.7644 3.80371 31.627C2.95059 32.4727 2.75011 33.1235 2.75 33.5996V39H33V33.5996C32.9999 33.1235 32.7994 32.4727 31.9463 31.627C31.0761 30.7644 29.7371 29.9262 28.041 29.1963C24.6459 27.7354 20.5197 27 17.875 27ZM40.5625 30C39.0272 30 36.94 30.2351 34.8604 30.7041C35.4266 31.5833 35.7499 32.5484 35.75 33.5996V39H52.25V34.9004C52.25 34.4208 52.0295 33.8681 51.3623 33.2393C50.6881 32.6038 49.6764 32.0132 48.4258 31.5117C45.9293 30.5107 42.8263 30 40.5625 30ZM40.5625 7.5C44.7407 7.5 48.125 11.1918 48.125 15.75C48.125 20.3081 44.7407 24 40.5625 24C36.3843 24 33 20.3081 33 15.75C33 11.1918 36.3843 7.5 40.5625 7.5ZM17.875 0C23.1928 0 27.5 4.69875 27.5 10.5C27.5 16.3013 23.1928 21 17.875 21C12.5572 21 8.25 16.3013 8.25 10.5C8.25 4.69875 12.5572 0 17.875 0ZM40.5625 10.5C37.903 10.5 35.75 12.8487 35.75 15.75C35.75 18.6513 37.903 21 40.5625 21C43.222 21 45.375 18.6513 45.375 15.75C45.375 12.8487 43.222 10.5 40.5625 10.5ZM17.875 3C14.076 3 11 6.35565 11 10.5C11 14.6444 14.076 18 17.875 18C21.674 18 24.75 14.6444 24.75 10.5C24.75 6.35565 21.674 3 17.875 3Z" fill="#003467"/>
<path d="M17.875 24C21.8434 24 28.4415 25.4229 32.415 28.2549C35.2471 27.4194 38.3537 27 40.5625 27C43.1171 27 46.545 27.5616 49.375 28.6963C50.7874 29.2628 52.1381 30.0063 53.1602 30.9697C54.1895 31.9399 55 33.2517 55 34.9004V42H0V33.5996C0.000488633 27.2159 11.9093 24 17.875 24ZM17.875 27C15.2303 27 11.1041 27.7354 7.70898 29.1963C6.01291 29.9262 4.67392 30.7644 3.80371 31.627C2.95059 32.4727 2.75011 33.1235 2.75 33.5996V39H33V33.5996C32.9999 33.1235 32.7994 32.4727 31.9463 31.627C31.0761 30.7644 29.7371 29.9262 28.041 29.1963C24.6459 27.7354 20.5197 27 17.875 27ZM40.5625 30C39.0272 30 36.94 30.2351 34.8604 30.7041C35.4266 31.5833 35.7499 32.5484 35.75 33.5996V39H52.25V34.9004C52.25 34.4208 52.0295 33.8681 51.3623 33.2393C50.6881 32.6038 49.6764 32.0132 48.4258 31.5117C45.9293 30.5107 42.8263 30 40.5625 30ZM40.5625 7.5C44.7407 7.5 48.125 11.1918 48.125 15.75C48.125 20.3081 44.7407 24 40.5625 24C36.3843 24 33 20.3081 33 15.75C33 11.1918 36.3843 7.5 40.5625 7.5ZM17.875 0C23.1928 0 27.5 4.69875 27.5 10.5C27.5 16.3013 23.1928 21 17.875 21C12.5572 21 8.25 16.3013 8.25 10.5C8.25 4.69875 12.5572 0 17.875 0ZM40.5625 10.5C37.903 10.5 35.75 12.8487 35.75 15.75C35.75 18.6513 37.903 21 40.5625 21C43.222 21 45.375 18.6513 45.375 15.75C45.375 12.8487 43.222 10.5 40.5625 10.5ZM17.875 3C14.076 3 11 6.35565 11 10.5C11 14.6444 14.076 18 17.875 18C21.674 18 24.75 14.6444 24.75 10.5C24.75 6.35565 21.674 3 17.875 3Z" stroke="#003467"/>
</svg>
