<svg width="45" height="42" viewBox="0 0 45 42" fill="none" xmlns="http://www.w3.org/2000/svg">
<mask id="path-1-inside-1_88_267" fill="white">
<path d="M41.5385 12.4444H31.1538C30.5204 12.4444 29.9337 12.6093 29.4231 12.8769V3.11111C29.4231 1.39533 27.8706 0 25.9615 0H10.3846C8.47558 0 6.92308 1.39533 6.92308 3.11111V16.3333C6.92308 16.9019 7.10654 17.4292 7.40423 17.8889H3.46154C1.5525 17.8889 0 19.2842 0 21V38.8889C0 40.6047 1.5525 42 3.46154 42H25.9615C27 42 27.9225 41.5777 28.5577 40.9243C29.1929 41.5777 30.1154 42 31.1538 42H41.5385C43.4475 42 45 40.6047 45 38.8889V29.5556C45 28.6222 44.531 27.7923 43.804 27.2222C44.1778 26.9331 44.4781 26.5751 44.6844 26.1725C44.8908 25.7699 44.9984 25.3321 45 24.8889V15.5556C45 13.8398 43.4475 12.4444 41.5385 12.4444ZM15.5769 1.55556H20.7692V3.88889C20.7692 4.31667 20.3807 4.66667 19.9038 4.66667H16.4423C15.9655 4.66667 15.5769 4.31667 15.5769 3.88889V1.55556ZM19.0385 40.4444H10.3846V37.3333C10.3846 36.904 10.7732 36.5556 11.25 36.5556H18.1731C18.6499 36.5556 19.0385 36.904 19.0385 37.3333V40.4444ZM27.6923 38.8889C27.6923 39.746 26.9161 40.4444 25.9615 40.4444H20.7692V37.3333C20.7692 36.0461 19.6044 35 18.1731 35H11.25C9.81865 35 8.65385 36.0461 8.65385 37.3333V40.4444H3.46154C2.50702 40.4444 1.73077 39.746 1.73077 38.8889V25.6667H27.6923V38.8889ZM27.6923 24.1111H1.73077V21C1.73077 20.1421 2.50702 19.4444 3.46154 19.4444H25.9615C26.9161 19.4444 27.6923 20.1421 27.6923 21V24.1111ZM15.5769 17.8889V15.5556C15.5769 15.1262 15.9655 14.7778 16.4423 14.7778H19.9038C20.3807 14.7778 20.7692 15.1262 20.7692 15.5556V17.8889H15.5769ZM27.6923 16.3333C27.6923 17.1912 26.9161 17.8889 25.9615 17.8889H22.5V15.5556C22.5 14.2683 21.3352 13.2222 19.9038 13.2222H16.4423C15.011 13.2222 13.8462 14.2683 13.8462 15.5556V17.8889H10.3846C9.4301 17.8889 8.65385 17.1912 8.65385 16.3333V3.11111C8.65385 2.25322 9.4301 1.55556 10.3846 1.55556H13.8462V3.88889C13.8462 5.17533 15.011 6.22222 16.4423 6.22222H19.9038C21.3352 6.22222 22.5 5.17533 22.5 3.88889V1.55556H25.9615C26.9161 1.55556 27.6923 2.25322 27.6923 3.11111V16.3333ZM43.2692 38.8889C43.2692 39.746 42.493 40.4444 41.5385 40.4444H31.1538C30.1993 40.4444 29.4231 39.746 29.4231 38.8889V31.8889H43.2692V38.8889ZM43.2692 30.3333H29.4231V29.5556C29.4231 28.6977 30.1993 28 31.1538 28H41.5385C42.493 28 43.2692 28.6977 43.2692 29.5556V30.3333ZM43.2692 24.8889C43.2692 25.746 42.493 26.4444 41.5385 26.4444H31.1538C30.1993 26.4444 29.4231 25.746 29.4231 24.8889V17.8889H43.2692V24.8889ZM43.2692 16.3333H29.4231V15.5556C29.4231 14.6977 30.1993 14 31.1538 14H41.5385C42.493 14 43.2692 14.6977 43.2692 15.5556V16.3333Z"/>
</mask>
<path d="M41.5385 12.4444H31.1538C30.5204 12.4444 29.9337 12.6093 29.4231 12.8769V3.11111C29.4231 1.39533 27.8706 0 25.9615 0H10.3846C8.47558 0 6.92308 1.39533 6.92308 3.11111V16.3333C6.92308 16.9019 7.10654 17.4292 7.40423 17.8889H3.46154C1.5525 17.8889 0 19.2842 0 21V38.8889C0 40.6047 1.5525 42 3.46154 42H25.9615C27 42 27.9225 41.5777 28.5577 40.9243C29.1929 41.5777 30.1154 42 31.1538 42H41.5385C43.4475 42 45 40.6047 45 38.8889V29.5556C45 28.6222 44.531 27.7923 43.804 27.2222C44.1778 26.9331 44.4781 26.5751 44.6844 26.1725C44.8908 25.7699 44.9984 25.3321 45 24.8889V15.5556C45 13.8398 43.4475 12.4444 41.5385 12.4444ZM15.5769 1.55556H20.7692V3.88889C20.7692 4.31667 20.3807 4.66667 19.9038 4.66667H16.4423C15.9655 4.66667 15.5769 4.31667 15.5769 3.88889V1.55556ZM19.0385 40.4444H10.3846V37.3333C10.3846 36.904 10.7732 36.5556 11.25 36.5556H18.1731C18.6499 36.5556 19.0385 36.904 19.0385 37.3333V40.4444ZM27.6923 38.8889C27.6923 39.746 26.9161 40.4444 25.9615 40.4444H20.7692V37.3333C20.7692 36.0461 19.6044 35 18.1731 35H11.25C9.81865 35 8.65385 36.0461 8.65385 37.3333V40.4444H3.46154C2.50702 40.4444 1.73077 39.746 1.73077 38.8889V25.6667H27.6923V38.8889ZM27.6923 24.1111H1.73077V21C1.73077 20.1421 2.50702 19.4444 3.46154 19.4444H25.9615C26.9161 19.4444 27.6923 20.1421 27.6923 21V24.1111ZM15.5769 17.8889V15.5556C15.5769 15.1262 15.9655 14.7778 16.4423 14.7778H19.9038C20.3807 14.7778 20.7692 15.1262 20.7692 15.5556V17.8889H15.5769ZM27.6923 16.3333C27.6923 17.1912 26.9161 17.8889 25.9615 17.8889H22.5V15.5556C22.5 14.2683 21.3352 13.2222 19.9038 13.2222H16.4423C15.011 13.2222 13.8462 14.2683 13.8462 15.5556V17.8889H10.3846C9.4301 17.8889 8.65385 17.1912 8.65385 16.3333V3.11111C8.65385 2.25322 9.4301 1.55556 10.3846 1.55556H13.8462V3.88889C13.8462 5.17533 15.011 6.22222 16.4423 6.22222H19.9038C21.3352 6.22222 22.5 5.17533 22.5 3.88889V1.55556H25.9615C26.9161 1.55556 27.6923 2.25322 27.6923 3.11111V16.3333ZM43.2692 38.8889C43.2692 39.746 42.493 40.4444 41.5385 40.4444H31.1538C30.1993 40.4444 29.4231 39.746 29.4231 38.8889V31.8889H43.2692V38.8889ZM43.2692 30.3333H29.4231V29.5556C29.4231 28.6977 30.1993 28 31.1538 28H41.5385C42.493 28 43.2692 28.6977 43.2692 29.5556V30.3333ZM43.2692 24.8889C43.2692 25.746 42.493 26.4444 41.5385 26.4444H31.1538C30.1993 26.4444 29.4231 25.746 29.4231 24.8889V17.8889H43.2692V24.8889ZM43.2692 16.3333H29.4231V15.5556C29.4231 14.6977 30.1993 14 31.1538 14H41.5385C42.493 14 43.2692 14.6977 43.2692 15.5556V16.3333Z" fill="#003467" stroke="#003467" stroke-width="2" mask="url(#path-1-inside-1_88_267)"/>
</svg>
