<svg width="45" height="42" viewBox="0 0 45 42" fill="none" xmlns="http://www.w3.org/2000/svg">
<mask id="path-1-inside-1_88_264" fill="white">
<path fill-rule="evenodd" clip-rule="evenodd" d="M22.4602 5.68356e-05C22.4565 0.00111297 22.4528 0.00218972 22.4491 0.00328671C22.443 0.00323288 22.4368 0.00323288 22.4307 0.00328671C22.3222 0.0100806 22.2159 0.0335884 22.1168 0.0727258L0.77914 8.05499C0.560043 8.08524 0.360725 8.1835 0.217662 8.33177C0.0745983 8.48004 -0.00264388 8.66841 6.91107e-05 8.86242V33.0886C-0.00101123 33.2037 0.0260546 33.3177 0.0794526 33.4229C0.08066 33.4261 0.0818914 33.4293 0.0831455 33.4325C0.0906456 33.4473 0.0986492 33.4618 0.107145 33.4762C0.206337 33.6504 0.374178 33.7875 0.579757 33.8621L21.934 41.8476C22.1162 41.9625 22.3401 42.0153 22.5636 41.9962C22.7253 41.9887 22.8819 41.9441 23.0177 41.867L44.4219 33.8621C44.5721 33.8087 44.7035 33.7216 44.803 33.6096C44.9025 33.4977 44.9665 33.3647 44.9886 33.2242C44.9916 33.2098 44.994 33.1952 44.996 33.1806C44.9976 33.1677 44.9988 33.1548 44.9997 33.1419C45.0001 33.1284 45.0001 33.115 44.9997 33.1015C44.9998 33.0972 44.9998 33.0929 44.9997 33.0886V8.86242C45.0021 8.67085 44.9265 8.48478 44.7865 8.33746C44.6465 8.19014 44.4512 8.09116 44.2354 8.05822L22.8811 0.0727258C22.8623 0.0646242 22.8433 0.0570835 22.8239 0.0501174C22.8214 0.0490312 22.819 0.0479549 22.8165 0.0468879C22.7891 0.0398472 22.7614 0.0339194 22.7334 0.0291242C22.7242 0.0268458 22.715 0.0246925 22.7057 0.0226648C22.685 0.0177204 22.6641 0.0134116 22.643 0.00974608C22.6338 0.00854737 22.6245 0.00747052 22.6153 0.0065162C22.595 0.00485249 22.5747 0.00377556 22.5544 0.00328671C22.5231 0.000808763 22.4916 -0.000269367 22.4602 5.68356e-05ZM22.499 1.68759L27.0239 3.37835L7.84616 10.5532C7.82742 10.5602 7.80895 10.5677 7.79078 10.5758L3.26404 8.8818L22.5008 1.68759H22.499ZM29.3721 4.25845L34.8626 6.31094L15.3267 13.6198C15.1462 13.6877 14.9952 13.8041 14.8956 13.9522C14.796 14.1004 14.753 14.2724 14.7729 14.4434C14.7696 14.4745 14.7683 14.5058 14.7692 14.537V23.1766L12.768 20.5492C12.6432 20.3856 12.4546 20.2675 12.2374 20.217C12.0202 20.1664 11.7894 20.187 11.5883 20.2747L9.23077 21.3049V11.7934L29.3721 4.25845ZM37.2108 7.18781L41.7394 8.8818L22.5008 16.076L17.9759 14.3853L37.1573 7.21042C37.1761 7.20342 37.1945 7.19588 37.2127 7.18781H37.2108ZM1.84621 10.1059L7.38463 12.1777V22.6114C7.38463 22.7491 7.42489 22.8845 7.50158 23.0047C7.57826 23.1249 7.68883 23.226 7.82277 23.2984C7.95671 23.3707 8.10957 23.4119 8.26682 23.418C8.42408 23.4241 8.5805 23.3949 8.72123 23.3332L11.6824 22.0365L14.8726 26.2222C14.9739 26.3928 15.1415 26.5263 15.3452 26.5985C15.3724 26.6077 15.4001 26.6158 15.4283 26.6227C15.4295 26.6238 15.4307 26.6248 15.4319 26.6259C15.491 26.6408 15.5516 26.6506 15.6129 26.655C15.6436 26.6574 15.6744 26.6585 15.7052 26.6582C15.736 26.6585 15.7668 26.6574 15.7975 26.655C15.8285 26.651 15.8594 26.6456 15.8898 26.6388C15.9084 26.635 15.9269 26.6307 15.9452 26.6259C15.9557 26.6239 15.9661 26.6218 15.9766 26.6194C16.183 26.5626 16.3601 26.4442 16.4768 26.2848C16.5936 26.1254 16.6426 25.9352 16.6153 25.7474V15.6352L21.5759 17.489V39.9582L1.84621 32.5783V10.1059ZM43.1536 10.1091V32.5783L23.422 39.9614V17.489L43.1536 10.1091ZM31.5654 28.6671C31.5617 28.6681 31.558 28.6692 31.5543 28.6703C31.4395 28.6752 31.3268 28.6987 31.222 28.7398L25.8405 30.7519C25.6153 30.8358 25.4374 30.9946 25.346 31.1933C25.2546 31.3919 25.2571 31.6142 25.3531 31.8112C25.4491 32.0082 25.6306 32.1638 25.8577 32.2438C26.0848 32.3237 26.3389 32.3215 26.5642 32.2376L31.9512 30.2254C32.1556 30.1556 32.3249 30.0243 32.4287 29.8552C32.5325 29.686 32.564 29.49 32.5175 29.3024C32.4711 29.1148 32.3497 28.9478 32.1752 28.8314C32.0007 28.7149 31.7845 28.6567 31.5654 28.6671ZM36.9376 29.8782C36.8248 29.8837 36.714 29.9072 36.6109 29.9477L31.2238 31.9598L25.8405 33.9751C25.6153 34.0591 25.4374 34.2179 25.346 34.4165C25.2546 34.6152 25.2571 34.8375 25.3531 35.0345C25.4491 35.2315 25.6306 35.3871 25.8577 35.4671C26.0848 35.547 26.3389 35.5448 26.5642 35.4608L31.9512 33.4455L37.3345 31.4301C37.5348 31.3571 37.6993 31.2247 37.7991 31.0562C37.8988 30.8877 37.9276 30.6938 37.8802 30.5086C37.8328 30.3233 37.7124 30.1587 37.54 30.0434C37.3676 29.9281 37.1544 29.8696 36.9376 29.8782Z"/>
</mask>
<path fill-rule="evenodd" clip-rule="evenodd" d="M22.4602 5.68356e-05C22.4565 0.00111297 22.4528 0.00218972 22.4491 0.00328671C22.443 0.00323288 22.4368 0.00323288 22.4307 0.00328671C22.3222 0.0100806 22.2159 0.0335884 22.1168 0.0727258L0.77914 8.05499C0.560043 8.08524 0.360725 8.1835 0.217662 8.33177C0.0745983 8.48004 -0.00264388 8.66841 6.91107e-05 8.86242V33.0886C-0.00101123 33.2037 0.0260546 33.3177 0.0794526 33.4229C0.08066 33.4261 0.0818914 33.4293 0.0831455 33.4325C0.0906456 33.4473 0.0986492 33.4618 0.107145 33.4762C0.206337 33.6504 0.374178 33.7875 0.579757 33.8621L21.934 41.8476C22.1162 41.9625 22.3401 42.0153 22.5636 41.9962C22.7253 41.9887 22.8819 41.9441 23.0177 41.867L44.4219 33.8621C44.5721 33.8087 44.7035 33.7216 44.803 33.6096C44.9025 33.4977 44.9665 33.3647 44.9886 33.2242C44.9916 33.2098 44.994 33.1952 44.996 33.1806C44.9976 33.1677 44.9988 33.1548 44.9997 33.1419C45.0001 33.1284 45.0001 33.115 44.9997 33.1015C44.9998 33.0972 44.9998 33.0929 44.9997 33.0886V8.86242C45.0021 8.67085 44.9265 8.48478 44.7865 8.33746C44.6465 8.19014 44.4512 8.09116 44.2354 8.05822L22.8811 0.0727258C22.8623 0.0646242 22.8433 0.0570835 22.8239 0.0501174C22.8214 0.0490312 22.819 0.0479549 22.8165 0.0468879C22.7891 0.0398472 22.7614 0.0339194 22.7334 0.0291242C22.7242 0.0268458 22.715 0.0246925 22.7057 0.0226648C22.685 0.0177204 22.6641 0.0134116 22.643 0.00974608C22.6338 0.00854737 22.6245 0.00747052 22.6153 0.0065162C22.595 0.00485249 22.5747 0.00377556 22.5544 0.00328671C22.5231 0.000808763 22.4916 -0.000269367 22.4602 5.68356e-05ZM22.499 1.68759L27.0239 3.37835L7.84616 10.5532C7.82742 10.5602 7.80895 10.5677 7.79078 10.5758L3.26404 8.8818L22.5008 1.68759H22.499ZM29.3721 4.25845L34.8626 6.31094L15.3267 13.6198C15.1462 13.6877 14.9952 13.8041 14.8956 13.9522C14.796 14.1004 14.753 14.2724 14.7729 14.4434C14.7696 14.4745 14.7683 14.5058 14.7692 14.537V23.1766L12.768 20.5492C12.6432 20.3856 12.4546 20.2675 12.2374 20.217C12.0202 20.1664 11.7894 20.187 11.5883 20.2747L9.23077 21.3049V11.7934L29.3721 4.25845ZM37.2108 7.18781L41.7394 8.8818L22.5008 16.076L17.9759 14.3853L37.1573 7.21042C37.1761 7.20342 37.1945 7.19588 37.2127 7.18781H37.2108ZM1.84621 10.1059L7.38463 12.1777V22.6114C7.38463 22.7491 7.42489 22.8845 7.50158 23.0047C7.57826 23.1249 7.68883 23.226 7.82277 23.2984C7.95671 23.3707 8.10957 23.4119 8.26682 23.418C8.42408 23.4241 8.5805 23.3949 8.72123 23.3332L11.6824 22.0365L14.8726 26.2222C14.9739 26.3928 15.1415 26.5263 15.3452 26.5985C15.3724 26.6077 15.4001 26.6158 15.4283 26.6227C15.4295 26.6238 15.4307 26.6248 15.4319 26.6259C15.491 26.6408 15.5516 26.6506 15.6129 26.655C15.6436 26.6574 15.6744 26.6585 15.7052 26.6582C15.736 26.6585 15.7668 26.6574 15.7975 26.655C15.8285 26.651 15.8594 26.6456 15.8898 26.6388C15.9084 26.635 15.9269 26.6307 15.9452 26.6259C15.9557 26.6239 15.9661 26.6218 15.9766 26.6194C16.183 26.5626 16.3601 26.4442 16.4768 26.2848C16.5936 26.1254 16.6426 25.9352 16.6153 25.7474V15.6352L21.5759 17.489V39.9582L1.84621 32.5783V10.1059ZM43.1536 10.1091V32.5783L23.422 39.9614V17.489L43.1536 10.1091ZM31.5654 28.6671C31.5617 28.6681 31.558 28.6692 31.5543 28.6703C31.4395 28.6752 31.3268 28.6987 31.222 28.7398L25.8405 30.7519C25.6153 30.8358 25.4374 30.9946 25.346 31.1933C25.2546 31.3919 25.2571 31.6142 25.3531 31.8112C25.4491 32.0082 25.6306 32.1638 25.8577 32.2438C26.0848 32.3237 26.3389 32.3215 26.5642 32.2376L31.9512 30.2254C32.1556 30.1556 32.3249 30.0243 32.4287 29.8552C32.5325 29.686 32.564 29.49 32.5175 29.3024C32.4711 29.1148 32.3497 28.9478 32.1752 28.8314C32.0007 28.7149 31.7845 28.6567 31.5654 28.6671ZM36.9376 29.8782C36.8248 29.8837 36.714 29.9072 36.6109 29.9477L31.2238 31.9598L25.8405 33.9751C25.6153 34.0591 25.4374 34.2179 25.346 34.4165C25.2546 34.6152 25.2571 34.8375 25.3531 35.0345C25.4491 35.2315 25.6306 35.3871 25.8577 35.4671C26.0848 35.547 26.3389 35.5448 26.5642 35.4608L31.9512 33.4455L37.3345 31.4301C37.5348 31.3571 37.6993 31.2247 37.7991 31.0562C37.8988 30.8877 37.9276 30.6938 37.8802 30.5086C37.8328 30.3233 37.7124 30.1587 37.54 30.0434C37.3676 29.9281 37.1544 29.8696 36.9376 29.8782Z" fill="#003467" stroke="#003467" stroke-width="2" mask="url(#path-1-inside-1_88_264)"/>
</svg>
