<svg width="45" height="42" viewBox="0 0 45 42" fill="none" xmlns="http://www.w3.org/2000/svg">
<path d="M4.90625 0.316406C3.68926 0.339995 2.52989 0.805439 1.67676 1.61328C0.823624 2.42113 0.343807 3.50807 0.339844 4.64062L0 17.0986C-0.00573439 17.7671 0.134837 18.4296 0.413086 19.0459C0.691405 19.6622 1.10198 20.2195 1.61914 20.6836L22.8135 40.4932C23.7345 41.3946 24.9913 41.9341 26.3262 42L26.5371 41.9092C27.1592 41.9138 27.7761 41.8029 28.3516 41.583C28.9269 41.3631 29.4496 41.0389 29.8887 40.6289L43.6182 27.8545C44.0826 27.4215 44.4456 26.9027 44.6826 26.332C44.9194 25.7615 45.026 25.151 44.9951 24.54C44.9147 23.3003 44.3367 22.1338 43.376 21.2715L22.1494 1.50684C21.6561 1.02317 21.0607 0.639129 20.4004 0.379883C19.7401 0.120682 19.029 -0.00860192 18.3125 0L4.90625 0.316406ZM18.4258 3.05859C18.6971 3.05983 18.9658 3.11077 19.2158 3.20898C19.4659 3.30723 19.6926 3.45071 19.8828 3.63086L41.1416 23.4102C41.5024 23.744 41.7209 24.1889 41.7568 24.6611C41.7708 24.8545 41.7405 25.0488 41.668 25.2305C41.5954 25.4122 41.4822 25.5778 41.3359 25.7158L27.5898 38.5049C27.4415 38.641 27.2637 38.7469 27.0684 38.8145C26.873 38.882 26.664 38.9095 26.4561 38.8965C25.9485 38.8631 25.4711 38.6599 25.1123 38.3242L3.85352 18.5449C3.65769 18.3695 3.50224 18.1588 3.39648 17.9258C3.29073 17.6927 3.23682 17.4415 3.23828 17.1885L3.57812 4.71582C3.57812 4.36035 3.72992 4.01899 4 3.76758C4.27024 3.51614 4.63736 3.375 5.01953 3.375L18.4258 3.05859ZM11.0908 5.8418C10.1299 5.84182 9.19047 6.1067 8.3916 6.60352C7.59277 7.10035 6.96997 7.80674 6.60254 8.63281C6.23525 9.45873 6.13938 10.3676 6.32715 11.2441C6.51505 12.1209 6.97832 12.9268 7.6582 13.5586C8.56821 14.4063 9.80308 14.8827 11.0908 14.8838C12.3786 14.8827 13.6134 14.4063 14.5234 13.5586C15.2033 12.9268 15.6666 12.121 15.8545 11.2441C16.0423 10.3675 15.9464 9.45878 15.5791 8.63281C15.2116 7.80669 14.5889 7.10035 13.79 6.60352C12.9911 6.1067 12.0517 5.8418 11.0908 5.8418ZM11.0908 8.8584C11.3039 8.85725 11.5156 8.89476 11.7129 8.96973C11.91 9.04465 12.089 9.15546 12.2402 9.29492C12.3912 9.43538 12.5111 9.60262 12.5928 9.78613C12.6744 9.96946 12.7167 10.1658 12.7168 10.3643C12.7168 10.5629 12.6744 10.7599 12.5928 10.9434C12.5111 11.1269 12.3912 11.2941 12.2402 11.4346C12.0893 11.5749 11.91 11.6858 11.7129 11.7617C11.5157 11.8377 11.3043 11.877 11.0908 11.877C10.8774 11.8769 10.6659 11.8377 10.4688 11.7617C10.2717 11.6857 10.0923 11.5749 9.94141 11.4346C9.79139 11.2938 9.67237 11.1268 9.5918 10.9434C9.51122 10.7598 9.47045 10.5625 9.47168 10.3643C9.47051 10.1662 9.51129 9.96953 9.5918 9.78613C9.67237 9.60264 9.79138 9.43565 9.94141 9.29492C10.0927 9.15535 10.2725 9.04467 10.4697 8.96973C10.6668 8.89488 10.8779 8.85727 11.0908 8.8584Z" fill="#003467"/>
<path d="M4.90625 0.316406C3.68926 0.339995 2.52989 0.805439 1.67676 1.61328C0.823624 2.42113 0.343807 3.50807 0.339844 4.64062L0 17.0986C-0.00573439 17.7671 0.134837 18.4296 0.413086 19.0459C0.691405 19.6622 1.10198 20.2195 1.61914 20.6836L22.8135 40.4932C23.7345 41.3946 24.9913 41.9341 26.3262 42L26.5371 41.9092C27.1592 41.9138 27.7761 41.8029 28.3516 41.583C28.9269 41.3631 29.4496 41.0389 29.8887 40.6289L43.6182 27.8545C44.0826 27.4215 44.4456 26.9027 44.6826 26.332C44.9194 25.7615 45.026 25.151 44.9951 24.54C44.9147 23.3003 44.3367 22.1338 43.376 21.2715L22.1494 1.50684C21.6561 1.02317 21.0607 0.639129 20.4004 0.379883C19.7401 0.120682 19.029 -0.00860192 18.3125 0L4.90625 0.316406ZM18.4258 3.05859C18.6971 3.05983 18.9658 3.11077 19.2158 3.20898C19.4659 3.30723 19.6926 3.45071 19.8828 3.63086L41.1416 23.4102C41.5024 23.744 41.7209 24.1889 41.7568 24.6611C41.7708 24.8545 41.7405 25.0488 41.668 25.2305C41.5954 25.4122 41.4822 25.5778 41.3359 25.7158L27.5898 38.5049C27.4415 38.641 27.2637 38.7469 27.0684 38.8145C26.873 38.882 26.664 38.9095 26.4561 38.8965C25.9485 38.8631 25.4711 38.6599 25.1123 38.3242L3.85352 18.5449C3.65769 18.3695 3.50224 18.1588 3.39648 17.9258C3.29073 17.6927 3.23682 17.4415 3.23828 17.1885L3.57812 4.71582C3.57812 4.36035 3.72992 4.01899 4 3.76758C4.27024 3.51614 4.63736 3.375 5.01953 3.375L18.4258 3.05859ZM11.0908 5.8418C10.1299 5.84182 9.19047 6.1067 8.3916 6.60352C7.59277 7.10035 6.96997 7.80674 6.60254 8.63281C6.23525 9.45873 6.13938 10.3676 6.32715 11.2441C6.51505 12.1209 6.97832 12.9268 7.6582 13.5586C8.56821 14.4063 9.80308 14.8827 11.0908 14.8838C12.3786 14.8827 13.6134 14.4063 14.5234 13.5586C15.2033 12.9268 15.6666 12.121 15.8545 11.2441C16.0423 10.3675 15.9464 9.45878 15.5791 8.63281C15.2116 7.80669 14.5889 7.10035 13.79 6.60352C12.9911 6.1067 12.0517 5.8418 11.0908 5.8418ZM11.0908 8.8584C11.3039 8.85725 11.5156 8.89476 11.7129 8.96973C11.91 9.04465 12.089 9.15546 12.2402 9.29492C12.3912 9.43538 12.5111 9.60262 12.5928 9.78613C12.6744 9.96946 12.7167 10.1658 12.7168 10.3643C12.7168 10.5629 12.6744 10.7599 12.5928 10.9434C12.5111 11.1269 12.3912 11.2941 12.2402 11.4346C12.0893 11.5749 11.91 11.6858 11.7129 11.7617C11.5157 11.8377 11.3043 11.877 11.0908 11.877C10.8774 11.8769 10.6659 11.8377 10.4688 11.7617C10.2717 11.6857 10.0923 11.5749 9.94141 11.4346C9.79139 11.2938 9.67237 11.1268 9.5918 10.9434C9.51122 10.7598 9.47045 10.5625 9.47168 10.3643C9.47051 10.1662 9.51129 9.96953 9.5918 9.78613C9.67237 9.60264 9.79138 9.43565 9.94141 9.29492C10.0927 9.15535 10.2725 9.04467 10.4697 8.96973C10.6668 8.89488 10.8779 8.85727 11.0908 8.8584Z" stroke="#003467"/>
</svg>
