<?xml version="1.0" encoding="UTF-8"?>
<svg id="Camada_2" data-name="Camada 2" xmlns="http://www.w3.org/2000/svg" viewBox="0 0 70.34 71.09">
  <defs>
    <style>
      .cls-1 {
        fill: #fff;
        stroke: #fff;
      }
    </style>
  </defs>
  <g id="Camada_1-2" data-name="Camada 1">
    <path class="cls-1" d="M35.17,44.38c5.83,0,14.6,1.5,21.91,4.22,3.65,1.36,6.89,3.01,9.2,4.89,2.32,1.9,3.56,3.91,3.56,5.99v11.11H.5v-11.11c0-2.08,1.24-4.09,3.56-5.99,2.31-1.88,5.54-3.53,9.2-4.89,7.31-2.72,16.09-4.22,21.91-4.22ZM35.17,46.66c-5.52,0-14.01,1.44-21.06,4.06-3.53,1.31-6.49,2.85-8.52,4.51-2.06,1.68-2.72,3.12-2.72,4.25v8.83h64.61v-8.83c0-1.13-.67-2.57-2.72-4.25-2.03-1.65-4.99-3.19-8.52-4.51-7.06-2.63-15.55-4.06-21.06-4.06ZM35.17.5c10.5,0,18.91,8.6,18.91,19.09,0,10.49-8.41,19.09-18.91,19.09s-18.91-8.6-18.91-19.09C16.26,9.1,24.67.5,35.17.5ZM35.17,2.78c-9.09,0-16.55,7.47-16.55,16.81,0,9.34,7.46,16.81,16.55,16.81s16.55-7.47,16.55-16.81c0-9.34-7.46-16.81-16.55-16.81Z"/>
  </g>
</svg>