<svg width="45" height="45" viewBox="0 0 45 45" fill="none" xmlns="http://www.w3.org/2000/svg">
<path d="M22.5 0C10.0941 0 0 10.0941 0 22.5C0 34.9059 10.0941 45 22.5 45C34.9059 45 45 34.9059 45 22.5C45 10.0941 34.9059 0 22.5 0ZM22.5 43.125C11.1272 43.125 1.875 33.8728 1.875 22.5C1.875 11.1272 11.1272 1.875 22.5 1.875C33.8728 1.875 43.125 11.1272 43.125 22.5C43.125 33.8728 33.8728 43.125 22.5 43.125Z" fill="#003467"/>
<path d="M20.625 11.25H24.375C26.9597 11.25 29.0625 13.3528 29.0625 15.9375H30.9375C30.9375 12.3188 27.9928 9.375 24.375 9.375H23.4375V6.5625H21.5625V9.375H20.625C17.0072 9.375 14.0625 12.3188 14.0625 15.9375V16.875C14.0625 20.4937 17.0072 23.4375 20.625 23.4375H24.375C26.9597 23.4375 29.0625 25.5403 29.0625 28.125V29.0625C29.0625 31.6472 26.9597 33.75 24.375 33.75H20.625C18.0403 33.75 15.9375 31.6472 15.9375 29.0625H14.0625C14.0625 32.6812 17.0072 35.625 20.625 35.625H21.5625V38.4375H23.4375V35.625H24.375C27.9928 35.625 30.9375 32.6812 30.9375 29.0625V28.125C30.9375 24.5063 27.9928 21.5625 24.375 21.5625H20.625C18.0403 21.5625 15.9375 19.4597 15.9375 16.875V15.9375C15.9375 13.3528 18.0403 11.25 20.625 11.25Z" fill="#003467"/>
</svg>
