<svg width="45" height="42" viewBox="0 0 45 42" fill="none" xmlns="http://www.w3.org/2000/svg">
<path d="M22.5 26.167C26.1963 26.167 31.7663 27.0416 36.4033 28.6338C38.7224 29.4301 40.7759 30.3953 42.2393 31.4971C43.7127 32.6065 44.5 33.7845 44.5 35V41.5H0.5V35C0.5 33.7845 1.28728 32.6065 2.76074 31.4971C4.22413 30.3953 6.27757 29.4301 8.59668 28.6338C13.2337 27.0416 18.8037 26.167 22.5 26.167ZM22.5 27.5C19.0002 27.5 13.6119 28.3405 9.13477 29.8779C6.89609 30.6467 5.01373 31.5469 3.72852 32.5146C2.42227 33.4982 2 34.3372 2 35V40.167H43V35C43 34.3372 42.5777 33.4982 41.2715 32.5146C39.9863 31.5469 38.1039 30.6467 35.8652 29.8779C31.3881 28.3405 25.9998 27.5 22.5 27.5ZM22.5 0.5C29.1632 0.5 34.5 5.52923 34.5 11.667C34.4998 17.8046 29.163 22.833 22.5 22.833C15.837 22.833 10.5002 17.8046 10.5 11.667C10.5 5.52923 15.8368 0.5 22.5 0.5ZM22.5 1.83301C16.7314 1.83301 12 6.20179 12 11.667C12.0002 17.132 16.7315 21.5 22.5 21.5C28.2685 21.5 32.9998 17.132 33 11.667C33 6.20179 28.2686 1.83301 22.5 1.83301Z" fill="#003467" stroke="#003467"/>
</svg>
