<?xml version="1.0" encoding="UTF-8"?>
<svg id="Camada_2" data-name="Camada 2" xmlns="http://www.w3.org/2000/svg" viewBox="0 0 103.16 103.22">
  <defs>
    <style>
      .cls-1 {
        fill: #fff;
      }

      .cls-2 {
        fill: none;
        stroke: #67c9ff;
        stroke-width: 3.16px;
      }

      .cls-2, .cls-3 {
        stroke-linecap: round;
        stroke-linejoin: round;
      }

      .cls-3 {
        fill: #123f72;
        stroke: #fff;
        stroke-width: 3.49px;
      }
    </style>
  </defs>
  <g id="Icons">
    <g id="Sale">
      <path id="Circulo_Fundo" data-name="Circulo Fundo" class="cls-2" d="M85.61,88.39c-19.33,17.94-49.8,17.63-68.78-.68C7.24,78.45,1.43,65.81,1.58,52.62l.02-2C1.9,24.26,23.34,2.28,50.05,1.62c1.07.11,1.92-.08,2.98-.03,26.08.95,46.5,20.69,48.42,46.68.18,2.46.17,4.53-.03,7.01-.97,12.55-6.5,24.46-15.82,33.1Z"/>
      <path id="Circulo_Frente" data-name="Circulo Frente" class="cls-3" d="M83.55,80.17c-8.39,9.5-20.67,14.66-33.21,14.28-22.13-.67-39.93-17.71-41.44-39.82-.9-13.29,4.27-26.52,14.56-35.45,8.25-7.15,19.23-10.86,29.93-10.35,7.92.38,15.64,2.78,22.14,7.19,21.43,14.53,25.14,44.75,8.01,64.14Z"/>
      <g id="Cifrao">
        <path class="cls-1" d="M21.71,49.39c1.36-.51,2.74.09,3.19,1.43.39,1.15-.16,2.54-1.43,3.03-1.13.44-2.57-.1-3.05-1.28s0-2.7,1.3-3.18Z"/>
        <path class="cls-1" d="M79.53,49.36c1.36-.49,2.71.23,3.16,1.56.38,1.12-.3,2.48-1.43,2.91-1.3.5-2.62-.13-3.11-1.27-.55-1.27.02-2.72,1.37-3.21Z"/>
        <path class="cls-1" d="M67.9,55.18c-2.44-5.15-8.18-6.99-13.32-8.09v-13.93c3.19.31,5.62,2.76,6.01,5.9.12.95.87,1.6,1.85,1.52,1.55-.13,3.1.07,4.64-.14,1.3-.18,1.71-1.56,1.5-2.7-1.32-6.92-7.11-11.07-13.97-11.77l-.05-3.85c-.02-1.5-1.17-2.55-2.51-2.79-1.33-.23-2.85.4-3.27,1.75-.09.28-.31.53-.31.86l-.03,3.99-.85.24c-2.95.27-6.04,1.52-8.56,3.58-4.83,3.96-6.33,10.87-3.36,16.44,2.5,4.69,8.07,6.36,12.82,7.44l-.03,15.88c-3.58-.59-6.27-3.54-6.5-7.2-.05-.85-.68-1.67-1.61-1.68-1.52-.02-3.12-.1-4.61.12-1.45.22-1.85,1.68-1.71,2.87.92,7.71,6.95,12.45,14.42,13.16l.08,4.48c.03,1.65,1.65,2.64,3.2,2.54,1.47-.1,2.86-1.22,2.87-2.93l.03-4.11c1.65-.19,4.01-.7,5.51-1.4,3.95-1.67,7.07-4.78,8.4-8.9,1.2-3.73,1.08-7.73-.6-11.28ZM48.43,45.65c-1.45-.3-2.73-.82-3.94-1.64-2.21-1.48-2.83-4.06-1.88-6.48.65-1.63,1.87-3.01,3.52-3.7.7-.31,1.34-.68,2.31-.7v12.51ZM60.24,65.74c-1.04,1.94-3.17,3.49-5.65,3.82v-14.53c2.2.48,4.38,1.44,5.64,3.43,1.41,2.23,1.26,4.94,0,7.28Z"/>
      </g>
    </g>
  </g>
</svg>