<?xml version="1.0" encoding="UTF-8"?>
<svg id="Camada_2" data-name="Camada 2" xmlns="http://www.w3.org/2000/svg" viewBox="0 0 102.55 110.31">
  <defs>
    <style>
      .cls-1, .cls-2, .cls-3 {
        stroke: #123f72;
        stroke-linecap: round;
        stroke-linejoin: round;
      }

      .cls-1, .cls-3 {
        stroke-width: 2.55px;
      }

      .cls-1, .cls-4 {
        fill: #5c92c5;
      }

      .cls-2 {
        stroke-width: 1.65px;
      }

      .cls-2, .cls-3 {
        fill: none;
      }

      .cls-5 {
        fill: #f8d8ca;
      }

      .cls-6 {
        fill: #f9e5d9;
      }
    </style>
  </defs>
  <g id="Icons">
    <g id="Customer">
      <path class="cls-1" d="M38.69,58.44c-.04.48-.19,1.03-.2,1.56,0,2.45-.45,4.92-2.19,6.74-.62.64-1.18,1.2-1.95,1.35-2.03.37-11.11,4.03-13.63,5.09-2.86,1.21-5.56,2.41-8.07,4.22-4.33,3.11-7.29,7.3-8.77,12.44-1.64,5.72-2.41,13.16-2.61,19.2h100c-.2-5.75-.84-11.38-2.01-16.96-1.65-7.83-6.55-14.02-13.9-17.26-4.6-2.3-9.24-4.39-14.18-5.8l-2.99-.86c-1.66-.48-2.77-2.12-3.46-3.8-.61-1.49-.64-3.05-.7-4.64-.02-.44-.23-.87-.18-1.27"/>
      <path class="cls-6" d="M73.69,27.34l2.16,2.6c1.55,1.87.79,8.22-1.83,11.2-.59.67-1.51.77-2.07,1.31-.23.22-.75.42-1.07.39,0,.47-.23.74-.3,1.13-.87,4.62-2.97,8.83-6.18,12.28-.12.13.04.41-.2.37,0,.07,0,.05,0,0-.28.35-.44.59-.66.77.54-2.72.01,3.33.29,1.03-.05.4.17.83.18,1.27.07,1.59.09,3.14.7,4.64.69,1.69,1.8,3.32,3.46,3.8l-.39.96c-1.29,3.15-3.64,5.73-6.67,7.63-9.25,5.79-21.69,2.47-26.48-7.76-.13-.27-.19-.61-.3-.89.77-.14,1.33-.7,1.95-1.35,1.74-1.82,2.18-4.28,2.19-6.74,0-.53.15-1.08.2-1.56.04-.42.08-.85.19-1.27-.39-.5-.71-.9-1.12-1.35-3.65-4.08-5.04-7.91-6.14-13.01-.12-4.57-.09-8.95.05-13.32.05-1.4.91-2.65,1.16-3.9.21-1.04,1.01-1.4,1.95-1.5,9.13-.96,16.65-2.33,24.24-8.07.28-.21.74-.44,1.06-.38,6.73,1.19,9.74,7.81,10.65,13.74.37-.02.66-.29.94-.51l1.88-1.43.13-.1Z"/>
      <path class="cls-4" d="M73.69,27.34l-.13.1-1.88,1.43c-.28.22-.57.49-.94.51-.91-5.93-3.93-12.55-10.65-13.74-.32-.06-.78.17-1.06.38-7.59,5.74-15.11,7.1-24.24,8.07-.94.1-1.74.46-1.95,1.5-.25,1.25-1.12,2.5-1.16,3.9-.36-.21-.61-.44-.94-.69l-1.81-1.39-.13-.1c0,.05,0,.07,0,0,0,.07,0,.05,0,0l-.09-.15c-.35-.59-.41-1.27-.48-2.03C27.06,12.09,36.67,1.94,49.74,1.31c6.74-.32,13.35,1.6,18.28,6.39s6.9,11.06,6.27,17.57c-.07.74-.1,1.38-.51,1.92l-.1.16Z"/>
      <path class="cls-5" d="M31.68,29.48c-.14,4.37-.17,8.75-.05,13.32-.31.14-.69-.16-.96-.33l-2.02-1.23c-1.92-1.17-4.02-8.81-1.75-11.6l1.8-2.21s.07-.09.1-.13c0,.07,0,.05,0,0l.13.1,1.81,1.39c.33.25.58.48.94.69Z"/>
      <path class="cls-3" d="M73.69,27.34c.03-.06.06-.11.1-.16.4-.53.44-1.17.51-1.92.62-6.51-1.54-12.97-6.27-17.57S56.49.98,49.74,1.31c-13.08.63-22.68,10.79-21.52,23.81.07.77.13,1.45.48,2.03l.09.15"/>
      <polyline class="cls-2" points="73.69 27.34 73.56 27.44 71.68 28.87"/>
      <path class="cls-3" d="M73.69,27.34l2.16,2.6c1.55,1.87.79,8.22-1.83,11.2-.59.67-1.51.77-2.07,1.31"/>
      <path class="cls-2" d="M28.79,27.31s.09.07.13.1l1.81,1.39"/>
      <path class="cls-3" d="M28.79,27.31l-.1.13-1.8,2.21c-2.27,2.79-.17,10.43,1.75,11.6l2.02,1.23"/>
      <path class="cls-3" d="M64.21,56.64c.24.03.07-.24.2-.37,3.21-3.45,5.31-7.66,6.18-12.28.07-.39.3-.67.3-1.13l.04-9.9c0-1.18.01-2.31-.18-3.57-.91-5.93-3.93-12.55-10.65-13.74-.32-.06-.78.17-1.06.38-7.59,5.74-15.11,7.1-24.24,8.07-.94.1-1.74.46-1.95,1.5-.25,1.25-1.12,2.5-1.16,3.9-.14,4.37-.17,8.75-.05,13.32,1.1,5.11,2.48,8.94,6.14,13.01.4.45.73.85,1.12,1.35.69.88,1.66,1.42,2.64,2.11,7.81,5.42,15.1,3.84,22.02-1.86.22-.18.38-.43.66-.77,0,.05,0,.07,0,0Z"/>
      <path class="cls-3" d="M34.65,68.97c4.78,10.23,17.22,13.55,26.48,7.76,3.03-1.89,5.38-4.48,6.67-7.63"/>
      <line class="cls-3" x1="17.35" y1="107.99" x2="17.35" y2="99.45"/>
      <line class="cls-3" x1="85.16" y1="107.99" x2="85.34" y2="99.6"/>
    </g>
  </g>
</svg>