<?xml version="1.0" encoding="UTF-8"?>
<svg id="Camada_2" data-name="Camada 2" xmlns="http://www.w3.org/2000/svg" viewBox="0 0 102.39 105.81">
  <defs>
    <style>
      .cls-1 {
        fill: #cdeeff;
      }

      .cls-2 {
        fill: #fcfcfc;
      }

      .cls-3 {
        stroke: #5190eb;
      }

      .cls-3, .cls-4, .cls-5, .cls-6, .cls-7, .cls-8, .cls-9 {
        fill: none;
        stroke-linecap: round;
        stroke-linejoin: round;
      }

      .cls-3, .cls-4, .cls-7, .cls-8 {
        stroke-width: 1.35px;
      }

      .cls-10 {
        fill: #83cbfe;
      }

      .cls-11 {
        fill: #4b81de;
      }

      .cls-4 {
        stroke: #376dd6;
      }

      .cls-5 {
        stroke: #5593ed;
        stroke-width: 1.2px;
      }

      .cls-12 {
        fill: #3970d6;
      }

      .cls-6 {
        stroke-width: 2.4px;
      }

      .cls-6, .cls-9 {
        stroke: #5390e8;
      }

      .cls-7 {
        stroke: #5592ed;
      }

      .cls-13 {
        fill: #f7f0ee;
      }

      .cls-14 {
        fill: #c2e9fd;
      }

      .cls-8 {
        stroke: #5393ee;
      }

      .cls-15 {
        fill: #eadedd;
      }

      .cls-9 {
        stroke-width: 1.95px;
      }

      .cls-16 {
        fill: #faf6f5;
      }

      .cls-17 {
        fill: #7bc4fc;
      }
    </style>
  </defs>
  <g id="Icons">
    <g id="Product">
      <path class="cls-1" d="M79.38,15.34l.13.07c-.35.13-.52.54-.87.74l-1.64.97-17.53,9.03,18.01,9.42c.76.4,1.57.69,2.28,1.31.12.25.07.64.24.87l-.15.07-6.52,3.33c-.37.19-.8.07-1.14.15-.06.01-.11.01-.17.01,0,.03-.04,0,0,0,0,.05-.04,0,0,0-.04-.04-.07-.08-.11-.12-.3-.26-.52-.72-1-.84l-2.21-.57-17.7-9.02-20.85,10.64c-.16.08-.16.24-.2.29-.04.03-.11.04-.17.05l-8.23-4.22s0-.09-.02-.13l-.12.06.12-.06c.04-.09.02-.32.23-.43l20.84-10.89c-.24-.27-.6-.37-.91-.53l-18.44-9.46c-.26-.14-.51-.47-.89-.47l8.4-4.31c.28.1.48.38.74.51l18.74,9.45c.25.13.47.26.59.55l19.95-10.09.56-.57,8.03,4.15Z"/>
      <path class="cls-14" d="M29.96,41.71l-.03,16.08-.2.07-3.16-3.6c-1.26-1.44-3.76.86-4.69.11-.14-.12-.32-.45-.32-.75l-.02-16.03s.02-.02.02-.03l8.23,4.22c.06-.01.14-.02.17-.05Z"/>
      <path class="cls-10" d="M80.3,37.61l.14-.07c.05.29-.07.61.08.88.1.18-.11.47.22.7l-.02,14.64c0,.57-.44,1.06-.97.93l-3.59-.82c-.63.39-1.15.9-1.63,1.46l-2.36,2.8-.14-16.03v-.15s0-.6,0-.6c.04,0,.04,0,0,0s0,.03,0,0c.06,0,.12,0,.17-.01.33-.09.77.04,1.14-.15l6.52-3.33.15-.07.29-.15Z"/>
      <g id="Product_Background" data-name="Product Background">
        <path class="cls-16" d="M101.19,26.62l-.13.07-20.61,10.85-.14.07-.29.15-.15.07.15-.07c-.18-.23-.13-.63-.24-.87-.71-.62-1.53-.92-2.28-1.31l-18.01-9.42,17.53-9.03,1.64-.97c.35-.21.52-.61.87-.74l-.13-.07.13.07,21.55,11.15v.14s.13-.07.13-.07Z"/>
        <path class="cls-2" d="M72.03,41.33s.04,0,0,0v.6s0,.15,0,.15v-.15c-.45.02-.77.38-1.1.55l-19.59,10.04-.13.07-21.16-10.69-.1-.19s.04-.2.2-.29l20.85-10.64,17.7,9.02,2.21.57c.48.12.69.58,1,.84.04.04.07.08.11.12-.04,0,0,.05,0,0Z"/>
        <path class="cls-2" d="M42.56,26.06s.04,0,0,0v.6s0,.15,0,.15v-.15c-.45.02-.77.38-1.1.55l-19.59,10.04-.13.07L.58,26.63l-.1-.19s.04-.2.2-.29l20.85-10.64,17.7,9.02,2.21.57c.48.12.69.58,1,.84.04.04.07.08.11.12-.04,0,0,.05,0,0Z"/>
        <path class="cls-2" d="M71.74,10.83s.04,0,0,0v.6s0,.15,0,.15v-.15c-.45.02-.77.38-1.1.55l-19.59,10.04-.13.07-21.16-10.69-.1-.19s.04-.2.2-.29L50.71.28l17.7,9.02,2.21.57c.48.12.69.58,1,.84.04.04.07.08.11.12-.04,0,0,.05,0,0Z"/>
        <path class="cls-13" d="M21.41,37.47l.12-.06s.02.09.02.13c0,0,0,.02-.02.03l.02,16.03c0,.3.18.64.32.75.93.75,3.43-1.55,4.69-.11l3.16,3.6.2-.07.03-16.08.1.19,21.16,10.69v.15s-.09,51.73-.09,51.73v.15c-.05-.02-.1-.04-.16-.05-1.59-.41-2.94-1.19-4.51-2.02L2.75,79.63c-.88-.46-1.52-.83-1.52-1.89l-.03-7.33.03-9.29v-12.6s0-17.97,0-17.97l.12-3.68.14-.09,19.93,10.69Z"/>
        <path class="cls-15" d="M51.12,104.62v-.15s.09-51.73.09-51.73v-.15s.13-.07.13-.07l19.59-10.04c.33-.17.65-.53,1.1-.55v.15s.14,16.03.14,16.03l2.36-2.8c.47-.56,1-1.07,1.63-1.46l3.59.82c.54.12.97-.36.97-.93l.02-14.64c-.32-.24-.12-.53-.22-.7-.15-.27-.03-.59-.08-.88l-.14.07.14-.07,20.61-10.85.13-.07s0,.1-.01.16l-.19,2.37-.02,43.18c0,.79-.14,5.42-.12,5.57.11.75-.41,1.1-1.02,1.42l-29.2,15.05-19.52,10.24Z"/>
      </g>
      <path class="cls-12" d="M89.85,75.2c-.26-.43-1.52.14-1.85-.41-.18-.31-.13-.69.07-.97-.06-.51.37-.89.78-1.08l4.01-1.91c.18-.09.4-.1.54-.05.14.05.23.24.22.47l-.06,3.97c-1.19.61-2.37,1.15-3.63,1.57-.24-.55.21-1.08-.1-1.59Z"/>
      <path class="cls-11" d="M81.05,80.93c-.92-.44,1.14-1.05,1.44-1.76.42-1-.34-2.81.58-2.88.23-.02.68,1.5.57.42l1.43-1.75c.21-.25.49-.19.66-.09.16.1.2.59-.02.77-1.16.96-1.82,2.27-1.78,3.9l-2.88,1.38Z"/>
      <line class="cls-9" x1="31.51" y1="11.84" x2="50.25" y2="21.29"/>
      <path class="cls-6" d="M101.19,26.62s-.09-.04-.13-.07l-21.55-11.15-.13-.07-8.03-4.15-3.14-1.61L51.91,1.38c-.67-.34-1.2-.17-1.84.15l-19.3,9.78-8.4,4.31L1.35,26.71"/>
      <path class="cls-6" d="M101.19,26.62l-.13.07-20.61,10.85-.14.07-.29.15-.15.07-6.52,3.33c-.37.19-.8.07-1.14.15h-.17"/>
      <path class="cls-9" d="M70.79,11.75l-19.95,10.09-8.24,4.25-20.84,10.89c-.21.11-.19.34-.23.43-.01.04,0,.1,0,.16l.02,16.03c0,.3.18.64.32.75.93.75,3.43-1.55,4.69-.11l3.16,3.6s.08.09.14.07c.05-.01.06-.1.06-.14l.03-16.08s.04-.2.2-.29l20.85-10.64,17.7,9.02,2.21.57c.48.12.69.58,1,.84l.11.12"/>
      <polyline class="cls-9" points="41.69 25.56 23.25 16.1 23.12 16.03"/>
      <path class="cls-6" d="M101.19,26.62v.16s-.2,2.37-.2,2.37l-.02,43.18c0,.79-.14,5.42-.12,5.57.11.75-.41,1.1-1.02,1.42l-29.2,15.05-19.52,10.24"/>
      <polyline class="cls-6" points="1.35 26.71 1.48 26.78 21.41 37.47 21.55 37.54 29.78 41.76 30.05 41.9 51.21 52.59"/>
      <path class="cls-6" d="M1.35,26.71c0,.05,0,.11,0,.16l-.12,3.68v17.97s0,12.6,0,12.6l-.03,9.29.03,7.33c0,1.06.64,1.43,1.52,1.89l43.7,22.92c1.57.82,2.92,1.61,4.51,2.02l.16.05"/>
      <path class="cls-9" d="M80.53,38.41c.1.18-.11.47.22.7l-.02,14.64c0,.57-.44,1.06-.97.93l-3.59-.82c-.63.39-1.15.9-1.63,1.46l-2.36,2.8-.14-16.03v-.15s0-.6,0-.6"/>
      <polyline class="cls-6" points="51.21 52.59 51.21 52.74 51.12 104.47 51.12 104.62"/>
      <polyline class="cls-6" points="71.07 42.41 70.94 42.48 51.34 52.52 51.21 52.59"/>
      <line class="cls-8" x1="6.42" y1="64.93" x2="14.27" y2="68.93"/>
      <line class="cls-3" x1="6.48" y1="68.26" x2="14.56" y2="72.4"/>
      <line class="cls-7" x1="6.46" y1="59.16" x2="24.76" y2="68.34"/>
      <line class="cls-5" x1="6.47" y1="62.29" x2="20.63" y2="69.55"/>
      <path class="cls-17" d="M77.41,17.92l-17.53,9.03v-1.6s18.28,9.56,18.28,9.56c2.14,1.2,2.8.83.1,2.09-.2-.11-.68-.36-.94-.49l-18.28-9.56c-.64-.31-.63-1.29,0-1.6,0,0,17.53-9.03,17.53-9.03.4-.18.83-.35,1.24-.52.58.52,1.22.65,1.77.99,0,0-1.01.52-2.19,1.13h0Z"/>
      <path class="cls-4" d="M78.21,83.69c1.16-.11,2.17-.57,3.24-1.07l13.63-6.24c.46-.52.23-1.47.24-2.05l.05-3.79c0-.72-.25-1.37-.22-2.22-.61.22-1.21.29-1.88.6l-14.37,6.71c-.4.19-.6.55-.68.93v7.13Z"/>
    </g>
  </g>
</svg>